# xmcd
#
# Track frame offsets:
#       183
#       14870
#       33570
#       47583
#       67358
#       78908
#       94208
#       105133
#       115995
#       133345
#       147945
#       168558
#       185183
#       194708
#
# Disc length: 2770 seconds
#
# Revision: 1
# Processed by: cddbd v1.4PL0 Copyright (c) Steve Scherf et al.
# Submitted via: MusiCat 1.1
#
DISCID=d80ad00e
DTITLE=Vari - Cocktail italiano vol. 4
DYEAR=1900
DGENRE=
TTITLE0=Davanti agli occhi miei-New Trolls
TTITLE1=Un diadema di ciliegie-Ricchi e poveri
TTITLE2=Angeli neri-Fausto Leali
TTITLE3=C'e' un boa nella canoa-Andrea Mingardi
TTITLE4=Te lo leggo negli occhi-Giorgio Gaber
TTITLE5=Poesia-Don Backy
TTITLE6=Ragazzo di strada-I Corvi
TTITLE7=Che m'importa del mondo-Rita Pavone
TTITLE8=L'isola di Wight-Dik Dik
TTITLE9=Un anno d'amore-Mina
TTITLE10=Il vento di Elora-Eugenio Finardi
TTITLE11=La fine d'agosto-Little Tony
TTITLE12=Malaga-Fred Bongusto
TTITLE13=Non pensare a me-Iva Zanicchi
EXTD=0\n\n\n
EXTT0=
EXTT1=
EXTT2=
EXTT3=
EXTT4=
EXTT5=
EXTT6=
EXTT7=
EXTT8=
EXTT9=
EXTT10=
EXTT11=
EXTT12=
EXTT13=
PLAYORDER=
